<svg xmlns="http://www.w3.org/2000/svg" width="880" height="20" viewBox="0 0 880 20" shape-rendering="crispEdges" ><rect x="0" y="6" width="4" height="4" fill="#2563EB"/><rect x="4" y="10" width="4" height="4" fill="#1B3A8F"/><rect x="8" y="6" width="4" height="4" fill="#2563EB"/><rect x="12" y="10" width="4" height="4" fill="#1B3A8F"/><rect x="16" y="6" width="4" height="4" fill="#2563EB"/><rect x="20" y="10" width="4" height="4" fill="#1B3A8F"/><rect x="24" y="6" width="4" height="4" fill="#2563EB"/><rect x="28" y="10" width="4" height="4" fill="#1B3A8F"/><rect x="32" y="6" width="4" height="4" fill="#2563EB"/><rect x="36" y="10" width="4" height="4" fill="#1B3A8F"/><rect x="40" y="6" width="4" height="4" fill="#2563EB"/><rect x="44" y="10" width="4" height="4" fill="#1B3A8F"/><rect x="48" y="6" width="4" height="4" fill="#2563EB"/><rect x="52" y="10" width="4" height="4" fill="#1B3A8F"/><rect x="56" y="6" width="4" height="4" fill="#2563EB"/><rect x="60" y="10" width="4" height="4" fill="#1B3A8F"/><rect x="64" y="6" width="4" height="4" fill="#2563EB"/><rect x="68" y="10" width="4" height="4" fill="#1B3A8F"/><rect x="72" y="6" width="4" height="4" fill="#2563EB"/><rect x="76" y="10" width="4" height="4" fill="#1B3A8F"/><rect x="80" y="6" width="4" height="4" fill="#2563EB"/><rect x="84" y="10" width="4" height="4" fill="#1B3A8F"/><rect x="88" y="6" width="4" height="4" fill="#2563EB"/><rect x="92" y="10" width="4" height="4" fill="#1B3A8F"/><rect x="96" y="6" width="4" height="4" fill="#2563EB"/><rect x="100" y="10" width="4" height="4" fill="#1B3A8F"/><rect x="104" y="6" width="4" height="4" fill="#2563EB"/><rect x="108" y="10" width="4" height="4" fill="#1B3A8F"/><rect x="112" y="6" width="4" height="4" fill="#2563EB"/><rect x="116" y="10" width="4" height="4" fill="#1B3A8F"/><rect x="120" y="6" width="4" height="4" fill="#2563EB"/><rect x="124" y="10" width="4" height="4" fill="#1B3A8F"/><rect x="128" y="6" width="4" height="4" fill="#2563EB"/><rect x="132" y="10" width="4" height="4" fill="#1B3A8F"/><rect x="136" y="6" width="4" height="4" fill="#2563EB"/><rect x="140" y="10" width="4" height="4" fill="#1B3A8F"/><rect x="144" y="6" width="4" height="4" fill="#2563EB"/><rect x="148" y="10" width="4" height="4" fill="#1B3A8F"/><rect x="152" y="6" width="4" height="4" fill="#2563EB"/><rect x="156" y="10" width="4" height="4" fill="#1B3A8F"/><rect x="160" y="6" width="4" height="4" fill="#2563EB"/><rect x="164" y="10" width="4" height="4" fill="#1B3A8F"/><rect x="168" y="6" width="4" height="4" fill="#2563EB"/><rect x="172" y="10" width="4" height="4" fill="#1B3A8F"/><rect x="176" y="6" width="4" height="4" fill="#2563EB"/><rect x="180" y="10" width="4" height="4" fill="#1B3A8F"/><rect x="184" y="6" width="4" height="4" fill="#2563EB"/><rect x="188" y="10" width="4" height="4" fill="#1B3A8F"/><rect x="192" y="6" width="4" height="4" fill="#2563EB"/><rect x="196" y="10" width="4" height="4" fill="#1B3A8F"/><rect x="200" y="6" width="4" height="4" fill="#2563EB"/><rect x="204" y="10" width="4" height="4" fill="#1B3A8F"/><rect x="208" y="6" width="4" height="4" fill="#2563EB"/><rect x="212" y="10" width="4" height="4" fill="#1B3A8F"/><rect x="216" y="6" width="4" height="4" fill="#2563EB"/><rect x="220" y="10" width="4" height="4" fill="#1B3A8F"/><rect x="224" y="6" width="4" height="4" fill="#2563EB"/><rect x="228" y="10" width="4" height="4" fill="#1B3A8F"/><rect x="232" y="6" width="4" height="4" fill="#2563EB"/><rect x="236" y="10" width="4" height="4" fill="#1B3A8F"/><rect x="240" y="6" width="4" height="4" fill="#2563EB"/><rect x="244" y="10" width="4" height="4" fill="#1B3A8F"/><rect x="248" y="6" width="4" height="4" fill="#2563EB"/><rect x="252" y="10" width="4" height="4" fill="#1B3A8F"/><rect x="256" y="6" width="4" height="4" fill="#2563EB"/><rect x="260" y="10" width="4" height="4" fill="#1B3A8F"/><rect x="264" y="6" width="4" height="4" fill="#2563EB"/><rect x="268" y="10" width="4" height="4" fill="#1B3A8F"/><rect x="272" y="6" width="4" height="4" fill="#2563EB"/><rect x="276" y="10" width="4" height="4" fill="#1B3A8F"/><rect x="280" y="6" width="4" height="4" fill="#2563EB"/><rect x="284" y="10" width="4" height="4" fill="#1B3A8F"/><rect x="288" y="6" width="4" height="4" fill="#2563EB"/><rect x="292" y="10" width="4" height="4" fill="#1B3A8F"/><rect x="296" y="6" width="4" height="4" fill="#2563EB"/><rect x="300" y="10" width="4" height="4" fill="#1B3A8F"/><rect x="304" y="6" width="4" height="4" fill="#2563EB"/><rect x="308" y="10" width="4" height="4" fill="#1B3A8F"/><rect x="312" y="6" width="4" height="4" fill="#2563EB"/><rect x="316" y="10" width="4" height="4" fill="#1B3A8F"/><rect x="320" y="6" width="4" height="4" fill="#2563EB"/><rect x="324" y="10" width="4" height="4" fill="#1B3A8F"/><rect x="328" y="6" width="4" height="4" fill="#2563EB"/><rect x="332" y="10" width="4" height="4" fill="#1B3A8F"/><rect x="336" y="6" width="4" height="4" fill="#2563EB"/><rect x="340" y="10" width="4" height="4" fill="#1B3A8F"/><rect x="344" y="6" width="4" height="4" fill="#2563EB"/><rect x="348" y="10" width="4" height="4" fill="#1B3A8F"/><rect x="352" y="6" width="4" height="4" fill="#2563EB"/><rect x="356" y="10" width="4" height="4" fill="#1B3A8F"/><rect x="360" y="6" width="4" height="4" fill="#2563EB"/><rect x="364" y="10" width="4" height="4" fill="#1B3A8F"/><rect x="368" y="6" width="4" height="4" fill="#2563EB"/><rect x="372" y="10" width="4" height="4" fill="#1B3A8F"/><rect x="376" y="6" width="4" height="4" fill="#2563EB"/><rect x="380" y="10" width="4" height="4" fill="#1B3A8F"/><rect x="384" y="6" width="4" height="4" fill="#2563EB"/><rect x="388" y="10" width="4" height="4" fill="#1B3A8F"/><rect x="392" y="6" width="4" height="4" fill="#2563EB"/><rect x="396" y="10" width="4" height="4" fill="#1B3A8F"/><rect x="400" y="6" width="4" height="4" fill="#2563EB"/><rect x="404" y="10" width="4" height="4" fill="#1B3A8F"/><rect x="408" y="6" width="4" height="4" fill="#2563EB"/><rect x="412" y="10" width="4" height="4" fill="#1B3A8F"/><rect x="416" y="6" width="4" height="4" fill="#2563EB"/><rect x="420" y="10" width="4" height="4" fill="#1B3A8F"/><rect x="424" y="6" width="4" height="4" fill="#2563EB"/><rect x="428" y="10" width="4" height="4" fill="#1B3A8F"/><rect x="432" y="6" width="4" height="4" fill="#2563EB"/><rect x="436" y="10" width="4" height="4" fill="#1B3A8F"/><rect x="440" y="6" width="4" height="4" fill="#2563EB"/><rect x="444" y="10" width="4" height="4" fill="#1B3A8F"/><rect x="448" y="6" width="4" height="4" fill="#2563EB"/><rect x="452" y="10" width="4" height="4" fill="#1B3A8F"/><rect x="456" y="6" width="4" height="4" fill="#2563EB"/><rect x="460" y="10" width="4" height="4" fill="#1B3A8F"/><rect x="464" y="6" width="4" height="4" fill="#2563EB"/><rect x="468" y="10" width="4" height="4" fill="#1B3A8F"/><rect x="472" y="6" width="4" height="4" fill="#2563EB"/><rect x="476" y="10" width="4" height="4" fill="#1B3A8F"/><rect x="480" y="6" width="4" height="4" fill="#2563EB"/><rect x="484" y="10" width="4" height="4" fill="#1B3A8F"/><rect x="488" y="6" width="4" height="4" fill="#2563EB"/><rect x="492" y="10" width="4" height="4" fill="#1B3A8F"/><rect x="496" y="6" width="4" height="4" fill="#2563EB"/><rect x="500" y="10" width="4" height="4" fill="#1B3A8F"/><rect x="504" y="6" width="4" height="4" fill="#2563EB"/><rect x="508" y="10" width="4" height="4" fill="#1B3A8F"/><rect x="512" y="6" width="4" height="4" fill="#2563EB"/><rect x="516" y="10" width="4" height="4" fill="#1B3A8F"/><rect x="520" y="6" width="4" height="4" fill="#2563EB"/><rect x="524" y="10" width="4" height="4" fill="#1B3A8F"/><rect x="528" y="6" width="4" height="4" fill="#2563EB"/><rect x="532" y="10" width="4" height="4" fill="#1B3A8F"/><rect x="536" y="6" width="4" height="4" fill="#2563EB"/><rect x="540" y="10" width="4" height="4" fill="#1B3A8F"/><rect x="544" y="6" width="4" height="4" fill="#2563EB"/><rect x="548" y="10" width="4" height="4" fill="#1B3A8F"/><rect x="552" y="6" width="4" height="4" fill="#2563EB"/><rect x="556" y="10" width="4" height="4" fill="#1B3A8F"/><rect x="560" y="6" width="4" height="4" fill="#2563EB"/><rect x="564" y="10" width="4" height="4" fill="#1B3A8F"/><rect x="568" y="6" width="4" height="4" fill="#2563EB"/><rect x="572" y="10" width="4" height="4" fill="#1B3A8F"/><rect x="576" y="6" width="4" height="4" fill="#2563EB"/><rect x="580" y="10" width="4" height="4" fill="#1B3A8F"/><rect x="584" y="6" width="4" height="4" fill="#2563EB"/><rect x="588" y="10" width="4" height="4" fill="#1B3A8F"/><rect x="592" y="6" width="4" height="4" fill="#2563EB"/><rect x="596" y="10" width="4" height="4" fill="#1B3A8F"/><rect x="600" y="6" width="4" height="4" fill="#2563EB"/><rect x="604" y="10" width="4" height="4" fill="#1B3A8F"/><rect x="608" y="6" width="4" height="4" fill="#2563EB"/><rect x="612" y="10" width="4" height="4" fill="#1B3A8F"/><rect x="616" y="6" width="4" height="4" fill="#2563EB"/><rect x="620" y="10" width="4" height="4" fill="#1B3A8F"/><rect x="624" y="6" width="4" height="4" fill="#2563EB"/><rect x="628" y="10" width="4" height="4" fill="#1B3A8F"/><rect x="632" y="6" width="4" height="4" fill="#2563EB"/><rect x="636" y="10" width="4" height="4" fill="#1B3A8F"/><rect x="640" y="6" width="4" height="4" fill="#2563EB"/><rect x="644" y="10" width="4" height="4" fill="#1B3A8F"/><rect x="648" y="6" width="4" height="4" fill="#2563EB"/><rect x="652" y="10" width="4" height="4" fill="#1B3A8F"/><rect x="656" y="6" width="4" height="4" fill="#2563EB"/><rect x="660" y="10" width="4" height="4" fill="#1B3A8F"/><rect x="664" y="6" width="4" height="4" fill="#2563EB"/><rect x="668" y="10" width="4" height="4" fill="#1B3A8F"/><rect x="672" y="6" width="4" height="4" fill="#2563EB"/><rect x="676" y="10" width="4" height="4" fill="#1B3A8F"/><rect x="680" y="6" width="4" height="4" fill="#2563EB"/><rect x="684" y="10" width="4" height="4" fill="#1B3A8F"/><rect x="688" y="6" width="4" height="4" fill="#2563EB"/><rect x="692" y="10" width="4" height="4" fill="#1B3A8F"/><rect x="696" y="6" width="4" height="4" fill="#2563EB"/><rect x="700" y="10" width="4" height="4" fill="#1B3A8F"/><rect x="704" y="6" width="4" height="4" fill="#2563EB"/><rect x="708" y="10" width="4" height="4" fill="#1B3A8F"/><rect x="712" y="6" width="4" height="4" fill="#2563EB"/><rect x="716" y="10" width="4" height="4" fill="#1B3A8F"/><rect x="720" y="6" width="4" height="4" fill="#2563EB"/><rect x="724" y="10" width="4" height="4" fill="#1B3A8F"/><rect x="728" y="6" width="4" height="4" fill="#2563EB"/><rect x="732" y="10" width="4" height="4" fill="#1B3A8F"/><rect x="736" y="6" width="4" height="4" fill="#2563EB"/><rect x="740" y="10" width="4" height="4" fill="#1B3A8F"/><rect x="744" y="6" width="4" height="4" fill="#2563EB"/><rect x="748" y="10" width="4" height="4" fill="#1B3A8F"/><rect x="752" y="6" width="4" height="4" fill="#2563EB"/><rect x="756" y="10" width="4" height="4" fill="#1B3A8F"/><rect x="760" y="6" width="4" height="4" fill="#2563EB"/><rect x="764" y="10" width="4" height="4" fill="#1B3A8F"/><rect x="768" y="6" width="4" height="4" fill="#2563EB"/><rect x="772" y="10" width="4" height="4" fill="#1B3A8F"/><rect x="776" y="6" width="4" height="4" fill="#2563EB"/><rect x="780" y="10" width="4" height="4" fill="#1B3A8F"/><rect x="784" y="6" width="4" height="4" fill="#2563EB"/><rect x="788" y="10" width="4" height="4" fill="#1B3A8F"/><rect x="792" y="6" width="4" height="4" fill="#2563EB"/><rect x="796" y="10" width="4" height="4" fill="#1B3A8F"/><rect x="800" y="6" width="4" height="4" fill="#2563EB"/><rect x="804" y="10" width="4" height="4" fill="#1B3A8F"/><rect x="808" y="6" width="4" height="4" fill="#2563EB"/><rect x="812" y="10" width="4" height="4" fill="#1B3A8F"/><rect x="816" y="6" width="4" height="4" fill="#2563EB"/><rect x="820" y="10" width="4" height="4" fill="#1B3A8F"/><rect x="824" y="6" width="4" height="4" fill="#2563EB"/><rect x="828" y="10" width="4" height="4" fill="#1B3A8F"/><rect x="832" y="6" width="4" height="4" fill="#2563EB"/><rect x="836" y="10" width="4" height="4" fill="#1B3A8F"/><rect x="840" y="6" width="4" height="4" fill="#2563EB"/><rect x="844" y="10" width="4" height="4" fill="#1B3A8F"/><rect x="848" y="6" width="4" height="4" fill="#2563EB"/><rect x="852" y="10" width="4" height="4" fill="#1B3A8F"/><rect x="856" y="6" width="4" height="4" fill="#2563EB"/><rect x="860" y="10" width="4" height="4" fill="#1B3A8F"/><rect x="864" y="6" width="4" height="4" fill="#2563EB"/><rect x="868" y="10" width="4" height="4" fill="#1B3A8F"/><rect x="872" y="6" width="4" height="4" fill="#2563EB"/><rect x="876" y="10" width="4" height="4" fill="#1B3A8F"/><rect x="10" y="5" width="5" height="5" fill="#F2F5FA"/><rect x="15" y="5" width="5" height="5" fill="#F2F5FA"/><rect x="10" y="10" width="5" height="5" fill="#F2F5FA"/><rect x="15" y="10" width="5" height="5" fill="#F2F5FA"/><rect x="850" y="5" width="5" height="5" fill="#F2F5FA"/><rect x="855" y="5" width="5" height="5" fill="#F2F5FA"/><rect x="850" y="10" width="5" height="5" fill="#F2F5FA"/><rect x="855" y="10" width="5" height="5" fill="#F2F5FA"/></svg>